<svg xmlns="http://www.w3.org/2000/svg" version="1.1" width="500" height="500">
<path d="M0 0 C165 0 330 0 500 0 C500 165 500 330 500 500 C335 500 170 500 0 500 C0 335 0 170 0 0 Z " fill="#FEFEFE" transform="translate(0,0)"/>
<path d="M0 0 C1.36632568 0.43554199 1.36632568 0.43554199 2.76025391 0.87988281 C35.52888266 11.44970009 63.22542139 28.03992809 88 52 C88.79664063 52.74507812 89.59328125 53.49015625 90.4140625 54.2578125 C96.47983145 60.0663757 101.59882079 66.51407671 106.64453125 73.20458984 C107.51337029 74.35542599 108.38788469 75.5020123 109.26953125 76.64306641 C129.07754446 102.32274067 141.82054352 134.0657352 147 166 C147.20496094 167.16917969 147.40992188 168.33835938 147.62109375 169.54296875 C152.06477895 199.60679757 149.38731623 231.15937371 140 260 C139.74347656 260.80099121 139.48695313 261.60198242 139.22265625 262.42724609 C128.96753554 294.10649158 112.15176078 321.0982526 89 345 C88.20851563 345.83144531 87.41703125 346.66289062 86.6015625 347.51953125 C81.4761905 352.79776523 76.05661926 357.79814883 70 362 C69.34 362 68.68 362 68 362 C65.79076117 357.34278944 63.58552763 352.68371031 61.38378906 348.02294922 C60.63615646 346.44171592 59.88748189 344.86097479 59.13769531 343.28076172 C51.14956915 326.44179176 51.14956915 326.44179176 48 318 C48.68964844 317.40574219 49.37929688 316.81148438 50.08984375 316.19921875 C60.80725231 306.74614097 69.13042431 295.88649383 77 284 C77.54527344 283.18015625 78.09054687 282.3603125 78.65234375 281.515625 C101.09638412 246.0337999 106.0538286 201.31832079 97.12109375 160.8984375 C89.46104192 129.93772594 71.60146354 99.43472917 47 79 C46.21238281 78.31292969 45.42476563 77.62585938 44.61328125 76.91796875 C19.06595802 55.11300378 -15.32208692 40.8901651 -49 40 C-50.31484375 39.9484375 -51.6296875 39.896875 -52.984375 39.84375 C-93.51903801 38.72734891 -134.0950543 52.42046644 -164.203125 80.01953125 C-165.83744844 81.65030181 -167.42764102 83.3097141 -169 85 C-174 90 -174 90 -175.56225586 91.4831543 C-179.98450309 95.74676717 -183.58928617 100.25624508 -187.0625 105.3125 C-187.58489258 106.06668213 -188.10728516 106.82086426 -188.64550781 107.59790039 C-190.10869402 109.72427871 -191.55774125 111.85939002 -193 114 C-193.90298828 115.33417969 -193.90298828 115.33417969 -194.82421875 116.6953125 C-202.606025 128.93300233 -207.93120491 143.147461 -212 157 C-212.29648438 158.00546875 -212.59296875 159.0109375 -212.8984375 160.046875 C-216.90287331 175.35095642 -217.76721368 192.23860062 -217 208 C-216.96422852 208.74894531 -216.92845703 209.49789062 -216.89160156 210.26953125 C-214.57938445 251.51813439 -194.34904014 290.9819568 -164.0625 318.75 C-158.32483936 323.53540183 -152.16471949 327.78920044 -146 332 C-144.99195313 332.69351562 -143.98390625 333.38703125 -142.9453125 334.1015625 C-130.17380102 342.42792453 -115.66071521 348.46249313 -100.91015625 352.24609375 C-98 353 -98 353 -95.19140625 353.99609375 C-74.99282175 360.34987125 -51.78121451 359.02697567 -31 357 C-25.93948358 366.85312314 -21.16001543 376.82623675 -16.5 386.875 C-15.95956055 388.03435059 -15.41912109 389.19370117 -14.86230469 390.38818359 C-14.11062012 392.01747803 -14.11062012 392.01747803 -13.34375 393.6796875 C-12.89193359 394.65663574 -12.44011719 395.63358398 -11.97460938 396.64013672 C-11 399 -11 399 -11 401 C-23.46529483 404.42184564 -36.12326898 405.59097443 -49 406 C-50.34481445 406.04302246 -50.34481445 406.04302246 -51.71679688 406.08691406 C-87.20671755 407.04380953 -121.65860701 399.8505242 -153.06152344 383.03710938 C-154.34953378 382.34800762 -155.64187436 381.66693673 -156.93847656 380.99414062 C-174.31989816 371.96732499 -189.56354139 360.17247912 -203.50341797 346.46582031 C-204.75708931 345.23791775 -206.03410224 344.03390785 -207.31640625 342.8359375 C-213.61848698 336.85214368 -218.7738781 329.9137624 -224 323 C-224.42571289 322.44570313 -224.85142578 321.89140625 -225.29003906 321.3203125 C-237.47684464 305.38885126 -246.15514878 287.79181098 -253 269 C-253.28214355 268.24509277 -253.56428711 267.49018555 -253.85498047 266.71240234 C-258.30875686 254.71581314 -260.98336572 242.62205937 -263 230 C-263.17877686 228.95851807 -263.35755371 227.91703613 -263.54174805 226.84399414 C-265.04052441 217.49683696 -265.36040012 208.37664172 -265.3125 198.9375 C-265.31034485 198.16998413 -265.3081897 197.40246826 -265.30596924 196.61169434 C-265.06439715 142.82629726 -243.08007566 91.75084112 -205.46582031 53.49658203 C-204.23791775 52.24291069 -203.03390785 50.96589776 -201.8359375 49.68359375 C-196.37194486 43.92896321 -190.1248467 39.1486523 -183.81152344 34.37158203 C-182.65425384 33.49536362 -181.50083867 32.61401544 -180.35253906 31.72607422 C-154.74605817 11.9763114 -122.96164348 -1.07710681 -90.98974609 -5.70751953 C-89.08954801 -5.98683699 -87.19488677 -6.30307603 -85.30078125 -6.62109375 C-57.42597749 -10.84454887 -26.81784672 -8.68223069 0 0 Z " fill="#010101" transform="translate(308,51)"/>
<path d="M0 0 C74.91 0 149.82 0 227 0 C246 53 246 53 246 56 C213.99 56 181.98 56 149 56 C153.95 67.55 158.9 79.1 164 91 C167.15347089 98.43439894 170.30271683 105.87025396 173.4375 113.3125 C174.24275901 115.22203875 175.04809979 117.13154302 175.85351562 119.04101562 C178.23723343 124.69335518 180.61899706 130.34651637 183 136 C183.35233704 136.83658142 183.70467407 137.67316284 184.06768799 138.53509521 C187.02637398 145.56055056 189.9842676 152.58633929 192.94116211 159.61254883 C198.52208424 172.8726653 204.11800344 186.12643072 209.71624756 199.37924194 C213.87112276 209.21531784 218.02446138 219.05201552 222.1640625 228.89453125 C222.49565369 229.68284332 222.82724487 230.4711554 223.16888428 231.28335571 C224.47557736 234.39004756 225.78220946 237.49676455 227.08789062 240.60388184 C230.95632577 249.80864992 234.84932429 259.00241131 238.7734375 268.18359375 C239.57016116 270.04971843 240.36687351 271.91584794 241.16357422 273.78198242 C242.69499582 277.36853635 244.23120541 280.95298961 245.77001953 284.53637695 C246.4614276 286.15438932 247.15267957 287.7724684 247.84375 289.390625 C248.32526016 290.50642189 248.32526016 290.50642189 248.8164978 291.64476013 C251 296.7727948 251 296.7727948 251 299 C230.21 299 209.42 299 188 299 C179.6875 279.3125 179.6875 279.3125 175.64312744 269.7325592 C171.81095511 260.65549722 167.97715825 251.5791259 164.140625 242.50390625 C155.97407035 223.18287105 147.83715212 203.85004548 139.75021362 184.49554443 C134.03584612 170.8227956 128.26234118 157.17622897 122.45324707 143.54348755 C116.07348471 128.56809542 109.77173458 113.56080982 103.50195312 98.5390625 C97.71196775 84.67342867 91.85497419 70.83902991 86 57 C53.33 56.505 53.33 56.505 20 56 C15.3284375 43.5321875 15.3284375 43.5321875 10.5625 30.8125 C9.08825562 26.88694214 9.08825562 26.88694214 7.58422852 22.88208008 C6.80715282 20.80300984 6.03035953 18.72383402 5.25390625 16.64453125 C4.64621399 15.03112854 4.64621399 15.03112854 4.02624512 13.38513184 C3.64061401 12.35029663 3.25498291 11.31546143 2.85766602 10.24926758 C2.52235367 9.35436111 2.18704132 8.45945465 1.84156799 7.53742981 C1 5 1 5 0 0 Z " fill="#000000" transform="translate(128,158)"/>
</svg>